<?xml version="1.0" encoding="UTF-8"?><svg xmlns="http://www.w3.org/2000/svg" viewBox="0 0 24 24"><defs><style>.v{fill:#231f20;}</style></defs><g id="a"/><g id="b"/><g id="c"/><g id="d"/><g id="e"/><g id="f"/><g id="g"/><g id="h"/><g id="i"/><g id="j"/><g id="k"><path class="v" d="M15,2.25h-6c-2.07,0-3.75,1.68-3.75,3.75v13.13c0,.65,.35,1.24,.92,1.54,.57,.31,1.26,.27,1.8-.09l3.89-2.59c.08-.06,.19-.06,.28,0l3.89,2.59h0c.29,.2,.63,.29,.97,.29,.28,0,.57-.07,.83-.21,.57-.3,.92-.9,.92-1.54V6c0-2.07-1.68-3.75-3.75-3.75Zm2.25,16.88c0,.13-.08,.19-.13,.22-.05,.03-.15,.06-.26-.01l-3.89-2.59c-.59-.4-1.35-.4-1.94,0l-3.89,2.59c-.11,.07-.21,.04-.26,.01-.05-.03-.13-.09-.13-.22V6c0-1.24,1.01-2.25,2.25-2.25h6c1.24,0,2.25,1.01,2.25,2.25v13.13Z"/></g><g id="l"/><g id="m"/><g id="n"/><g id="o"/><g id="p"/><g id="q"/><g id="r"/><g id="s"/><g id="t"/><g id="u"/></svg>