<?xml version="1.0" encoding="UTF-8"?><svg xmlns="http://www.w3.org/2000/svg" viewBox="0 0 24 24"><defs><style>.v{fill:#231f20;}</style></defs><g id="a"/><g id="b"/><g id="c"/><g id="d"/><g id="e"/><g id="f"/><g id="g"/><g id="h"/><g id="i"/><g id="j"/><g id="k"/><g id="l"/><g id="m"/><g id="n"><g><path class="v" d="M12.28,2.25c-2.64-.08-5.17,.91-7.07,2.76-1.9,1.85-2.95,4.33-2.95,6.99v8c0,.96,.79,1.75,1.75,1.75H12c2.66,0,5.14-1.05,6.99-2.95,1.85-1.9,2.83-4.42,2.76-7.07-.14-5.08-4.39-9.33-9.47-9.47Zm5.64,15.5c-1.57,1.61-3.67,2.5-5.91,2.5H4c-.14,0-.25-.11-.25-.25V12c0-2.25,.89-4.35,2.5-5.91,1.55-1.51,3.59-2.34,5.75-2.34,.08,0,.16,0,.24,0,4.3,.12,7.89,3.71,8.01,8.01,.06,2.25-.77,4.38-2.33,5.99Z"/><path class="v" d="M12.02,11.25h-.01c-.41,0-.74,.34-.74,.75s.34,.75,.75,.75,.75-.34,.75-.75-.34-.75-.75-.75Z"/><path class="v" d="M8.02,11.25h-.01c-.41,0-.74,.34-.74,.75s.34,.75,.75,.75,.75-.34,.75-.75-.34-.75-.75-.75Z"/><path class="v" d="M16.02,11.25h0c-.41,0-.75,.34-.75,.75s.34,.75,.75,.75,.75-.34,.75-.75-.33-.75-.75-.75Z"/></g></g><g id="o"/><g id="p"/><g id="q"/><g id="r"/><g id="s"/><g id="t"/><g id="u"/></svg>