<?xml version="1.0" encoding="UTF-8"?><svg xmlns="http://www.w3.org/2000/svg" viewBox="0 0 24 24"><defs><style>.v{fill:#231f20;}</style></defs><g id="a"/><g id="b"/><g id="c"/><g id="d"/><g id="e"/><g id="f"/><g id="g"/><g id="h"/><g id="i"/><g id="j"/><g id="k"/><g id="l"/><g id="m"/><g id="n"><g><path class="v" d="M19.75,10c0-4.27-3.48-7.75-7.75-7.75s-7.75,3.48-7.75,7.75c0,3.03,1.76,5.74,4.48,7.01l2.62,4.37c.14,.23,.38,.36,.64,.36s.51-.14,.64-.36l2.63-4.37c2.73-1.27,4.48-3.99,4.48-7.01Zm-5.31,5.76s-.04,.03-.07,.04c-.05,.03-.09,.05-.13,.09-.04,.03-.07,.07-.1,.11-.02,.02-.04,.04-.06,.06l-2.09,3.48-2.09-3.48s-.03-.02-.04-.04c-.04-.06-.08-.1-.14-.15-.03-.02-.06-.04-.09-.06-.03-.02-.05-.05-.09-.06-2.32-.98-3.82-3.24-3.82-5.76,0-3.45,2.8-6.25,6.25-6.25s6.25,2.8,6.25,6.25c0,2.51-1.5,4.77-3.81,5.76Z"/><path class="v" d="M12,6.25c-2.07,0-3.75,1.68-3.75,3.75s1.68,3.75,3.75,3.75,3.75-1.68,3.75-3.75-1.68-3.75-3.75-3.75Zm0,6c-1.24,0-2.25-1.01-2.25-2.25s1.01-2.25,2.25-2.25,2.25,1.01,2.25,2.25-1.01,2.25-2.25,2.25Z"/></g></g><g id="o"/><g id="p"/><g id="q"/><g id="r"/><g id="s"/><g id="t"/><g id="u"/></svg>