<?xml version="1.0" encoding="UTF-8"?><svg xmlns="http://www.w3.org/2000/svg" viewBox="0 0 24 24"><defs><style>.v{fill:#231f20;}</style></defs><g id="a"/><g id="b"/><g id="c"/><g id="d"/><g id="e"/><g id="f"/><g id="g"/><g id="h"/><g id="i"/><g id="j"/><g id="k"/><g id="l"/><g id="m"/><g id="n"/><g id="o"/><g id="p"/><g id="q"/><g id="r"/><g id="s"/><g id="t"><g><path class="v" d="M16,2.25H8c-3.17,0-5.75,2.58-5.75,5.75v8c0,3.17,2.58,5.75,5.75,5.75h8c3.17,0,5.75-2.58,5.75-5.75V8c0-3.17-2.58-5.75-5.75-5.75ZM3.75,16V8c0-2.34,1.91-4.25,4.25-4.25h8c2.34,0,4.25,1.91,4.25,4.25v4.25h-1.28c-2.17,0-4.1,1.04-5.33,2.65-.81,.33-1.5,.35-1.64,.35-2.07,0-3.27-1.53-3.4-1.7-.25-.33-.72-.4-1.05-.15-.33,.25-.4,.72-.15,1.05,.29,.38,1.86,2.3,4.6,2.3,.11,0,.34,0,.65-.05-.26,.71-.4,1.47-.4,2.27v1.28h-4.25c-2.34,0-4.25-1.91-4.25-4.25Zm12.25,4.25h-2.25v-1.28c0-2.88,2.34-5.22,5.22-5.22h1.28v2.25c0,2.34-1.91,4.25-4.25,4.25Z"/><path class="v" d="M10,10.75c.41,0,.75-.34,.75-.75v-1c0-.41-.34-.75-.75-.75s-.75,.34-.75,.75v1c0,.41,.34,.75,.75,.75Z"/><path class="v" d="M14,10.75c.41,0,.75-.34,.75-.75v-1c0-.41-.34-.75-.75-.75s-.75,.34-.75,.75v1c0,.41,.34,.75,.75,.75Z"/></g></g><g id="u"/></svg>