<?xml version="1.0" encoding="UTF-8"?><svg xmlns="http://www.w3.org/2000/svg" viewBox="0 0 24 24"><defs><style>.v{fill:#231f20;}</style></defs><g id="a"/><g id="b"/><g id="c"/><g id="d"/><g id="e"/><g id="f"/><g id="g"/><g id="h"/><g id="i"/><g id="j"/><g id="k"/><g id="l"/><g id="m"/><g id="n"/><g id="o"/><g id="p"/><g id="q"/><g id="r"/><g id="s"/><g id="t"/><g id="u"><g><path class="v" d="M12,2.25C6.62,2.25,2.25,6.62,2.25,12s4.37,9.75,9.75,9.75,9.75-4.37,9.75-9.75S17.38,2.25,12,2.25ZM7.69,19.02c.98-1.41,2.59-2.27,4.31-2.27s3.33,.85,4.32,2.27c-1.26,.78-2.73,1.23-4.32,1.23s-3.05-.45-4.31-1.23Zm9.82-.9c-1.27-1.8-3.31-2.87-5.51-2.87s-4.25,1.09-5.51,2.87c-1.68-1.51-2.74-3.69-2.74-6.12C3.75,7.45,7.45,3.75,12,3.75s8.25,3.7,8.25,8.25c0,2.43-1.06,4.61-2.74,6.12Z"/><path class="v" d="M12,6.25c-2.07,0-3.75,1.68-3.75,3.75s1.68,3.75,3.75,3.75,3.75-1.68,3.75-3.75-1.68-3.75-3.75-3.75Zm0,6c-1.24,0-2.25-1.01-2.25-2.25s1.01-2.25,2.25-2.25,2.25,1.01,2.25,2.25-1.01,2.25-2.25,2.25Z"/></g></g></svg>